STARTFONT 2.1
FONT -Adobe-ITC Souvenir-Demi-I-Normal--24-240-75-75-P-154-ISO8859-15
SIZE 24 75 75
FONTBOUNDINGBOX 30 30 -3 -5

STARTPROPERTIES 30
FOUNDRY "Adobe"
FAMILY_NAME "ITC Souvenir"
WEIGHT_NAME "Demi"
SLANT "I"
SETWIDTH_NAME "Normal"
ADD_STYLE_NAME ""
PIXEL_SIZE 24
POINT_SIZE 240
RESOLUTION_X 75
RESOLUTION_Y 75
SPACING "P"
AVERAGE_WIDTH 154
CHARSET_REGISTRY "ISO8859"
CHARSET_ENCODING "15"
CAP_HEIGHT 19
X_HEIGHT 12
FACE_NAME "ITC Souvenir Demi Italic"
COPYRIGHT "Copyright (c) 1984, 1987 Adobe Systems Incorporated. All Rights Reserved. Copyright (c) 1988, 1991 Digital Equipment Corporation. All Rights Reserved."
NOTICE "ITC Souvenir is a registered trademark of International Typeface Corporation.  "
_DEC_DEVICE_FONTNAMES "PS=Souvenir-DemiItalic"
_DEC_PRODUCTINFO "DECwindows Fonts V2.2, 07-Nov-1991"
RELATIVE_SETWIDTH 50
RELATIVE_WEIGHT 60
CHARSET_COLLECTIONS "ASCII ISO8859-1 ADOBE-STANDARD"
FULL_NAME "ITC Souvenir Demi Italic"
WEIGHT 10
QUAD_WIDTH 18
DEFAULT_CHAR 32
FONT_DESCENT 5
FONT_ASCENT 22
ENDPROPERTIES

CHARS 191

STARTCHAR space
ENCODING 32
SWIDTH 340 0
DWIDTH 8 0
BBX 1 1 0 0
BITMAP
00
ENDCHAR

STARTCHAR exclam
ENCODING 33
SWIDTH 380 0
DWIDTH 10 0
BBX 7 19 1 0
BITMAP
1C
3E
3E
3E
3E
3C
3C
3C
3C
38
38
38
00
00
70
F8
F8
F8
70
ENDCHAR

STARTCHAR quotedbl
ENCODING 34
SWIDTH 580 0
DWIDTH 14 0
BBX 9 8 2 11
BITMAP
6300
F780
F780
E700
E700
C600
C600
8400
ENDCHAR

STARTCHAR numbersign
ENCODING 35
SWIDTH 660 0
DWIDTH 16 0
BBX 15 18 0 1
BITMAP
0318
0318
0318
0318
0318
3FFE
3FFE
0C60
0C60
0C60
0C60
FFF8
FFF8
3180
3180
3180
3180
3180
ENDCHAR

STARTCHAR dollar
ENCODING 36
SWIDTH 680 0
DWIDTH 16 0
BBX 15 23 0 -3
BITMAP
0060
0060
03F8
0FFC
1E3E
3C1E
3C0C
3E00
3F00
3FC0
1FF0
0FF8
03FC
00FC
007C
607C
F078
F8F8
7FF0
3F80
0600
0600
0600
ENDCHAR

STARTCHAR percent
ENCODING 37
SWIDTH 900 0
DWIDTH 22 0
BBX 20 19 0 0
BITMAP
1E0180
3F0380
738700
638600
E38E00
E39C00
E39800
E33800
E773C0
7E67E0
3CEE70
01CC70
019C70
039C70
071C70
061C60
0E1CE0
1C0FC0
180780
ENDCHAR

STARTCHAR ampersand
ENCODING 38
SWIDTH 880 0
DWIDTH 21 0
BBX 19 19 0 0
BITMAP
00FC00
03FE00
03CF00
078700
078700
078E00
079C00
03F800
07E000
1FC3E0
7DE1C0
79E180
F1F300
F0F600
F0FC00
F07C00
787E60
7FFFE0
1F8F80
ENDCHAR

STARTCHAR quoteright
ENCODING 39
SWIDTH 320 0
DWIDTH 8 0
BBX 6 8 1 11
BITMAP
38
7C
7C
7C
38
30
60
C0
ENDCHAR

STARTCHAR parenleft
ENCODING 40
SWIDTH 360 0
DWIDTH 9 0
BBX 9 23 0 -4
BITMAP
0380
0700
0E00
1E00
3C00
3C00
7800
7800
7800
F000
F000
F000
F000
F000
F000
F000
F000
F000
7800
7800
3C00
1C00
0E00
ENDCHAR

STARTCHAR parenright
ENCODING 41
SWIDTH 360 0
DWIDTH 9 0
BBX 9 23 -1 -4
BITMAP
3800
1C00
1E00
0F00
0F00
0780
0780
0780
0780
0780
0780
0780
0780
0780
0F00
0F00
0F00
1E00
1E00
3C00
3800
7000
E000
ENDCHAR

STARTCHAR asterisk
ENCODING 42
SWIDTH 680 0
DWIDTH 17 0
BBX 11 10 2 8
BITMAP
0700
C700
E600
F400
1FE0
1EE0
F460
E600
C700
0700
ENDCHAR

STARTCHAR plus
ENCODING 43
SWIDTH 660 0
DWIDTH 16 0
BBX 13 13 1 1
BITMAP
0700
0700
0700
0700
0700
FFF8
FFF8
FFF8
0700
0700
0700
0700
0700
ENDCHAR

STARTCHAR comma
ENCODING 44
SWIDTH 340 0
DWIDTH 8 0
BBX 6 8 -1 -3
BITMAP
38
7C
7C
7C
38
30
60
C0
ENDCHAR

STARTCHAR minus
ENCODING 45
SWIDTH 660 0
DWIDTH 16 0
BBX 12 3 1 6
BITMAP
FFF0
FFF0
FFF0
ENDCHAR

STARTCHAR period
ENCODING 46
SWIDTH 340 0
DWIDTH 8 0
BBX 5 5 0 0
BITMAP
70
F8
F8
F8
70
ENDCHAR

STARTCHAR slash
ENCODING 47
SWIDTH 420 0
DWIDTH 10 0
BBX 13 21 -2 -2
BITMAP
0038
0030
0070
0060
00E0
00C0
01C0
0180
0380
0300
0700
0600
0E00
0C00
1C00
1800
3800
3000
7000
6000
E000
ENDCHAR

STARTCHAR zero
ENCODING 48
SWIDTH 680 0
DWIDTH 16 0
BBX 15 19 0 0
BITMAP
03F0
0FFC
1F7C
1E3E
3E3E
3C3E
7C3E
7C3E
7C3E
F83E
F87C
F87C
F87C
F878
F8F8
F8F0
7DF0
7FE0
1F80
ENDCHAR

STARTCHAR one
ENCODING 49
SWIDTH 680 0
DWIDTH 16 0
BBX 11 19 1 0
BITMAP
01C0
07C0
3FC0
3FC0
07C0
07C0
0F80
0F80
0F80
0F80
0F80
0F80
1F00
1F00
1F00
1F00
1F00
3F80
FFE0
ENDCHAR

STARTCHAR two
ENCODING 50
SWIDTH 680 0
DWIDTH 16 0
BBX 15 19 0 0
BITMAP
03F0
0FFC
1E3E
1C3E
3C1E
3C3E
183E
007C
007C
00F8
01F0
07C0
0F80
1F00
3C0C
781C
FFFC
FFF8
FFF8
ENDCHAR

STARTCHAR three
ENCODING 51
SWIDTH 680 0
DWIDTH 16 0
BBX 15 19 0 0
BITMAP
07F0
1FFC
3C7C
3C3E
3C3E
183E
003E
007C
07F0
07F0
00F8
007C
007C
607C
F07C
F0F8
F0F8
7FF0
1FC0
ENDCHAR

STARTCHAR four
ENCODING 52
SWIDTH 680 0
DWIDTH 16 0
BBX 15 19 0 0
BITMAP
003C
00FC
01FC
03FC
077C
0E7C
1C7C
18F8
30F8
70F8
E0F8
C0F8
FFFE
FFFE
01F0
01F0
01F0
03F8
07F8
ENDCHAR

STARTCHAR five
ENCODING 53
SWIDTH 680 0
DWIDTH 16 0
BBX 15 19 0 0
BITMAP
1FFC
1FF8
1FF0
1FC0
1800
1800
1800
3BE0
3FF8
387C
307C
003E
003E
003E
607C
F07C
F0F8
FFF0
3FC0
ENDCHAR

STARTCHAR six
ENCODING 54
SWIDTH 680 0
DWIDTH 16 0
BBX 15 19 0 0
BITMAP
007C
03FC
0FC0
0F00
3E00
3E00
7C00
7DF0
FFFC
FC7E
F83E
F83E
F83E
F83E
F87C
F87C
7CF8
7FF0
1FC0
ENDCHAR

STARTCHAR seven
ENCODING 55
SWIDTH 680 0
DWIDTH 16 0
BBX 14 19 1 0
BITMAP
7FFC
7FFC
7FF8
FFB8
C070
00F0
00E0
01E0
03E0
03C0
07C0
0780
0F80
0F80
1F00
1F00
3F00
3E00
7E00
ENDCHAR

STARTCHAR eight
ENCODING 56
SWIDTH 680 0
DWIDTH 16 0
BBX 16 19 0 0
BITMAP
03F8
0FFE
1F1F
1E0F
1E0F
1F0F
1F9E
0FF8
07F0
0FF8
3FFC
7C7E
F83E
F03E
F03E
F03C
F87C
7FF8
1FE0
ENDCHAR

STARTCHAR nine
ENCODING 57
SWIDTH 680 0
DWIDTH 16 0
BBX 15 19 0 0
BITMAP
07F0
1FFC
3E7C
7C3E
783E
F83E
F83E
F83E
F83E
7C7E
7FFE
1F7C
007C
00F8
00F8
01E0
07E0
7F80
7C00
ENDCHAR

STARTCHAR colon
ENCODING 58
SWIDTH 320 0
DWIDTH 8 0
BBX 6 12 0 0
BITMAP
38
7C
7C
7C
38
00
00
70
F8
F8
F8
70
ENDCHAR

STARTCHAR semicolon
ENCODING 59
SWIDTH 340 0
DWIDTH 8 0
BBX 7 15 -1 -3
BITMAP
1C
3E
3E
3E
1C
00
00
38
7C
7C
7C
38
30
60
C0
ENDCHAR

STARTCHAR less
ENCODING 60
SWIDTH 660 0
DWIDTH 16 0
BBX 15 14 0 1
BITMAP
000E
003E
00F8
03E0
0F80
3E00
F800
F800
3E00
0F80
03E0
00F8
003E
000E
ENDCHAR

STARTCHAR equal
ENCODING 61
SWIDTH 660 0
DWIDTH 16 0
BBX 13 8 1 4
BITMAP
FFF8
FFF8
FFF8
0000
0000
FFF8
FFF8
FFF8
ENDCHAR

STARTCHAR greater
ENCODING 62
SWIDTH 660 0
DWIDTH 16 0
BBX 15 14 0 1
BITMAP
E000
F800
3E00
0F80
03E0
00F8
003E
003E
00F8
03E0
0F80
3E00
F800
E000
ENDCHAR

STARTCHAR question
ENCODING 63
SWIDTH 520 0
DWIDTH 13 0
BBX 12 19 0 0
BITMAP
1F80
7FE0
F3F0
F1F0
61F0
01F0
01E0
03E0
0F80
3E00
3800
3000
3000
0000
7000
F800
F800
F800
7000
ENDCHAR

STARTCHAR at
ENCODING 64
SWIDTH 860 0
DWIDTH 21 0
BBX 20 19 0 0
BITMAP
01FF00
07FFC0
1E00E0
380060
307730
61FF30
63C730
C38730
C70E30
C70E30
C70E60
C71C60
C79CC0
C3FFC0
61CF00
700060
3801E0
1FFF80
07FE00
ENDCHAR

STARTCHAR A
ENCODING 65
SWIDTH 760 0
DWIDTH 21 0
BBX 20 19 -1 0
BITMAP
001E00
003F00
007F00
007F00
00EF80
01CF80
01CF80
038F80
0707C0
0707C0
0E07C0
0FFFC0
1FFFC0
1C03E0
3803E0
3803E0
7003E0
F807F0
F807F0
ENDCHAR

STARTCHAR B
ENCODING 66
SWIDTH 780 0
DWIDTH 18 0
BBX 17 19 0 0
BITMAP
3FFC00
3FFF00
1F1F80
1F0F80
1F0F80
1F0F80
3E0F00
3E1E00
3E7C00
3FFE00
3F8F00
3E0F80
7C0F80
7C0F80
7C0F80
7C1F00
7C3F00
FFFE00
FFF800
ENDCHAR

STARTCHAR C
ENCODING 67
SWIDTH 780 0
DWIDTH 19 0
BBX 18 19 0 0
BITMAP
01FF00
07FFC0
1F83C0
1F01C0
7E00C0
7C00C0
7C0000
F80000
F80000
F80000
F80000
F80000
F80000
F80180
FC0180
7C0700
7E3F00
3FFC00
0FF000
ENDCHAR

STARTCHAR D
ENCODING 68
SWIDTH 860 0
DWIDTH 20 0
BBX 19 19 0 0
BITMAP
3FFE00
3FFF80
1F0FC0
1F07C0
1F07E0
1F03E0
3E03E0
3E03E0
3E03E0
3E03E0
3E03E0
3E03E0
7C07C0
7C07C0
7C0FC0
7C1F00
7C3F00
FFFC00
FFF000
ENDCHAR

STARTCHAR E
ENCODING 69
SWIDTH 700 0
DWIDTH 17 0
BBX 16 19 0 0
BITMAP
3FFF
3FFF
1F07
1F03
1F00
1F00
3E00
3E18
3FF8
3FF8
3E18
3E00
7C00
7C00
7C00
7C06
7C0E
FFFE
FFFC
ENDCHAR

STARTCHAR F
ENCODING 70
SWIDTH 640 0
DWIDTH 16 0
BBX 16 19 0 0
BITMAP
3FFF
3FFF
1F07
1F03
1F00
1F00
3E00
3E18
3FF8
3FF8
3E18
3E00
7C00
7C00
7C00
7C00
7C00
FE00
FE00
ENDCHAR

STARTCHAR G
ENCODING 71
SWIDTH 820 0
DWIDTH 19 0
BBX 18 19 0 0
BITMAP
01FF00
07FFC0
1F83C0
1F01C0
7E00C0
7C00C0
7C0000
F80000
F80000
F81FC0
F81FC0
F807C0
F807C0
F807C0
FC0F80
7C0F80
7E1F80
3FFE00
0FF800
ENDCHAR

STARTCHAR H
ENCODING 72
SWIDTH 880 0
DWIDTH 22 0
BBX 21 19 0 0
BITMAP
3F83F8
3F83F8
1F01F0
1F01F0
1F01F0
1F01F0
3E03E0
3E03E0
3FFFE0
3FFFE0
3E03E0
3E03E0
7C07C0
7C07C0
7C07C0
7C07C0
7C07C0
FE0FE0
FE0FE0
ENDCHAR

STARTCHAR I
ENCODING 73
SWIDTH 400 0
DWIDTH 10 0
BBX 9 19 0 0
BITMAP
3F80
3F80
1F00
1F00
1F00
1F00
3E00
3E00
3E00
3E00
3E00
3E00
7C00
7C00
7C00
7C00
7C00
FE00
FE00
ENDCHAR

STARTCHAR J
ENCODING 74
SWIDTH 600 0
DWIDTH 15 0
BBX 15 19 -1 0
BITMAP
00FE
00FE
007C
007C
007C
007C
00F8
00F8
00F8
00F8
00F8
00F8
31F0
79F0
F9F0
E1F0
E3E0
7FE0
3F80
ENDCHAR

STARTCHAR K
ENCODING 75
SWIDTH 780 0
DWIDTH 19 0
BBX 19 19 0 0
BITMAP
3F8FE0
3F8FE0
1F0780
1F0F00
1F1E00
1F3C00
3E7000
3EE000
3FF000
3FF800
3F7800
3E7C00
7C3C00
7C3E00
7C1E00
7C1F00
7C1F00
FE3FC0
FE3FC0
ENDCHAR

STARTCHAR L
ENCODING 76
SWIDTH 660 0
DWIDTH 15 0
BBX 14 19 0 0
BITMAP
3FC0
3FC0
1F80
1F00
1F00
1F00
3E00
3E00
3E00
3E00
3E00
3E00
7C00
7C00
7C00
7C0C
7C1C
FFFC
FFF8
ENDCHAR

STARTCHAR M
ENCODING 77
SWIDTH 960 0
DWIDTH 25 0
BBX 25 19 -1 0
BITMAP
3F003F80
3F807F80
1F80FF00
1FC0DF00
1FC1DF00
1FC1BE00
3BC3BE00
3BE33E00
3BE73E00
3BE63E00
39EE3C00
39FC3C00
71FC7C00
70F87C00
70F87C00
70F07C00
70607C00
F800FE00
F800FE00
ENDCHAR

STARTCHAR N
ENCODING 78
SWIDTH 800 0
DWIDTH 20 0
BBX 19 19 0 0
BITMAP
3F03E0
3F83E0
1F81C0
1FC1C0
1FC1C0
1BE1C0
19F380
39F380
38FB80
38FB80
387B80
387F80
383F00
703F00
701F00
701F00
700F00
F80F00
F80600
ENDCHAR

STARTCHAR O
ENCODING 79
SWIDTH 860 0
DWIDTH 20 0
BBX 19 19 0 0
BITMAP
01FE00
07FF80
1F8FC0
1F07C0
7E07E0
7C03E0
7C03E0
F803E0
F803E0
F803E0
F803E0
F803E0
F807C0
F807C0
FC0FC0
7C1F00
7E3F00
3FFC00
0FF000
ENDCHAR

STARTCHAR P
ENCODING 80
SWIDTH 720 0
DWIDTH 18 0
BBX 17 19 0 0
BITMAP
3FFC00
3FFF00
1F1F80
1F0F80
1F0F80
1F0F80
3E0F80
3E1F80
3E1F00
3E7E00
3FF800
3FC000
7C0000
7C0000
7C0000
7C0000
7C0000
FE0000
FE0000
ENDCHAR

STARTCHAR Q
ENCODING 81
SWIDTH 880 0
DWIDTH 20 0
BBX 19 23 0 -4
BITMAP
01FE00
07FF80
1F8FC0
1F07C0
7E07E0
7C03E0
7C03E0
F803E0
F803E0
F803E0
F803E0
F803E0
F807C0
F807C0
FCCFC0
7CDF00
7EFF00
3FFC00
0FF000
006000
007E00
003E00
001C00
ENDCHAR

STARTCHAR R
ENCODING 82
SWIDTH 780 0
DWIDTH 19 0
BBX 18 19 0 0
BITMAP
3FFE00
3FFF80
1F0FC0
1F07C0
1F07C0
1E07C0
3E0F80
3E1F00
3E7E00
3FF800
3FF800
3E7C00
7C7C00
7C3E00
7C3E00
7C1F00
7C1F00
FE3F80
FE3F80
ENDCHAR

STARTCHAR S
ENCODING 83
SWIDTH 680 0
DWIDTH 16 0
BBX 15 19 0 0
BITMAP
03F8
0FFE
1F1E
1E0E
3E06
3E00
3F00
3FC0
1FF0
1FF8
07FC
01FC
007C
003C
603C
F038
F078
7FF0
1FC0
ENDCHAR

STARTCHAR T
ENCODING 84
SWIDTH 660 0
DWIDTH 16 0
BBX 15 19 1 0
BITMAP
FFFE
FFFE
E7CE
C7C6
07C0
07C0
0F80
0F80
0F80
0F80
0F80
0F80
1F00
1F00
1F00
1F00
1F00
3F80
3F80
ENDCHAR

STARTCHAR U
ENCODING 85
SWIDTH 800 0
DWIDTH 21 0
BBX 19 19 1 0
BITMAP
7F03E0
7F03E0
3E01C0
3E01C0
3E01C0
3E01C0
7C0380
7C0380
7C0380
7C0380
7C0380
F80380
F80700
F80700
F80700
F80E00
7C1E00
7FFC00
1FF000
ENDCHAR

STARTCHAR V
ENCODING 86
SWIDTH 720 0
DWIDTH 20 0
BBX 19 19 1 0
BITMAP
FE03E0
FE03E0
7C01C0
7C0380
7C0380
3C0700
3E0700
3E0E00
3E0E00
3E1C00
1E1C00
1F3800
1F7000
1F7000
1FE000
0FC000
0FC000
0F8000
0F0000
ENDCHAR

STARTCHAR W
ENCODING 87
SWIDTH 1020 0
DWIDTH 24 0
BBX 23 19 1 0
BITMAP
FE7F1E
FE7F1E
7C3E0C
7C3E0C
7C3E0C
7C3E18
3E1F18
3E3F18
3E3F30
3E7F30
3E7F30
1FCFE0
1FCFE0
1F8FC0
1F8FC0
1F0F80
0F0780
0E0700
0E0700
ENDCHAR

STARTCHAR X
ENCODING 88
SWIDTH 740 0
DWIDTH 20 0
BBX 18 19 0 0
BITMAP
3F87C0
3F87C0
1F0380
0F8700
0F8E00
07DC00
03F800
03F000
01F000
00F800
01F800
03FC00
073E00
0E3E00
1C1F00
380F80
700F80
F81FC0
F81FC0
ENDCHAR

STARTCHAR Y
ENCODING 89
SWIDTH 740 0
DWIDTH 18 0
BBX 17 19 1 0
BITMAP
FE0F80
FE0F80
7C0700
7C0E00
3E1C00
3E1C00
1F3800
1F7000
0FF000
0FE000
07C000
07C000
07C000
0F8000
0F8000
0F8000
0F8000
1FC000
1FC000
ENDCHAR

STARTCHAR Z
ENCODING 90
SWIDTH 620 0
DWIDTH 18 0
BBX 17 19 0 0
BITMAP
1FFF80
3FFF00
383E00
307E00
007C00
00F800
01F800
01F000
03E000
07E000
07C000
0F8000
1F8000
1F0000
3E0000
7E0600
7C0E00
FFFE00
FFFC00
ENDCHAR

STARTCHAR bracketleft
ENCODING 91
SWIDTH 340 0
DWIDTH 9 0
BBX 9 23 0 -4
BITMAP
1F80
1F00
1E00
1E00
1E00
3C00
3C00
3C00
3C00
3C00
3C00
7800
7800
7800
7800
7800
7800
F000
F000
F000
F000
F800
FC00
ENDCHAR

STARTCHAR backslash
ENCODING 92
SWIDTH 660 0
DWIDTH 17 0
BBX 7 19 4 0
BITMAP
C0
C0
C0
60
60
60
30
30
30
30
18
18
18
0C
0C
0C
06
06
06
ENDCHAR

STARTCHAR bracketright
ENCODING 93
SWIDTH 340 0
DWIDTH 9 0
BBX 9 23 -1 -4
BITMAP
1F80
0F80
0780
0780
0780
0780
0F00
0F00
0F00
0F00
0F00
0F00
1E00
1E00
1E00
1E00
1E00
1E00
3C00
3C00
3C00
7C00
FC00
ENDCHAR

STARTCHAR asciicircum
ENCODING 94
SWIDTH 660 0
DWIDTH 16 0
BBX 15 14 0 5
BITMAP
0380
0380
07C0
07C0
0EE0
0EE0
1C70
1C70
3838
3838
701C
701C
E00E
E00E
ENDCHAR

STARTCHAR underscore
ENCODING 95
SWIDTH 500 0
DWIDTH 13 0
BBX 13 2 0 -4
BITMAP
FFF8
FFF8
ENDCHAR

STARTCHAR quoteleft
ENCODING 96
SWIDTH 320 0
DWIDTH 8 0
BBX 6 8 1 11
BITMAP
0C
18
30
70
F8
F8
F8
70
ENDCHAR

STARTCHAR a
ENCODING 97
SWIDTH 640 0
DWIDTH 17 0
BBX 16 12 0 0
BITMAP
07C6
3FEE
7C3E
781E
F01E
F01E
F03C
F03C
F03C
787F
7FFE
1F9C
ENDCHAR

STARTCHAR b
ENCODING 98
SWIDTH 640 0
DWIDTH 16 0
BBX 14 19 0 0
BITMAP
1C00
7C00
7C00
3C00
3C00
3C00
7800
79E0
7FF8
7C78
783C
703C
F03C
F03C
F03C
F078
F8F8
FFF0
C780
ENDCHAR

STARTCHAR c
ENCODING 99
SWIDTH 540 0
DWIDTH 13 0
BBX 12 12 0 0
BITMAP
07E0
3FF0
7C70
7830
F000
F000
F000
F000
F000
7830
7FE0
1F80
ENDCHAR

STARTCHAR d
ENCODING 100
SWIDTH 680 0
DWIDTH 17 0
BBX 16 19 0 0
BITMAP
0007
001F
001F
000F
000F
000F
001E
07DE
3FFE
7C3E
781E
F01E
F03C
F03C
F03C
F03C
787F
7FFE
1F9C
ENDCHAR

STARTCHAR e
ENCODING 101
SWIDTH 580 0
DWIDTH 14 0
BBX 13 12 0 0
BITMAP
07E0
3FF8
7C78
7878
F0F0
FFC0
FF00
F000
F000
7830
7FE0
1F80
ENDCHAR

STARTCHAR f
ENCODING 102
SWIDTH 420 0
DWIDTH 10 0
BBX 12 24 -2 -5
BITMAP
00F0
03F0
03B0
0780
0780
0780
0780
1FE0
1FE0
0F00
0F00
0F00
0F00
0F00
1E00
1E00
1E00
1E00
1E00
1E00
1C00
DC00
F800
E000
ENDCHAR

STARTCHAR g
ENCODING 103
SWIDTH 600 0
DWIDTH 15 0
BBX 15 17 -1 -5
BITMAP
03FE
1FFE
3E78
3C3C
783C
783C
783C
7878
3CF8
3FF0
0F80
01E0
00E0
70F0
F1F0
FFE0
3F80
ENDCHAR

STARTCHAR h
ENCODING 104
SWIDTH 680 0
DWIDTH 16 0
BBX 15 19 0 0
BITMAP
1C00
7C00
7C00
3C00
3C00
3C00
7800
78F0
7BF8
7E7C
7C3C
783C
783C
F078
F078
F078
F07E
F07C
F038
ENDCHAR

STARTCHAR i
ENCODING 105
SWIDTH 340 0
DWIDTH 9 0
BBX 6 18 1 0
BITMAP
38
7C
7C
38
00
00
38
F8
F8
78
78
78
F0
F0
F0
FC
F8
F0
ENDCHAR

STARTCHAR j
ENCODING 106
SWIDTH 340 0
DWIDTH 8 0
BBX 10 23 -3 -5
BITMAP
0380
07C0
07C0
0380
0000
0000
0380
0F80
0F80
0780
0780
0780
0780
0F00
0F00
0F00
0F00
0F00
0F00
0F00
EE00
FE00
7800
ENDCHAR

STARTCHAR k
ENCODING 107
SWIDTH 600 0
DWIDTH 14 0
BBX 13 19 0 0
BITMAP
1C00
7C00
7C00
3C00
3C00
3C00
7800
7870
78F8
79B0
7B00
7F00
7F80
FFC0
F3C0
F1E0
F1F8
F0F0
F060
ENDCHAR

STARTCHAR l
ENCODING 108
SWIDTH 360 0
DWIDTH 9 0
BBX 6 19 1 0
BITMAP
1C
7C
7C
3C
3C
3C
78
78
78
78
78
78
78
F0
F0
F0
FC
F8
F0
ENDCHAR

STARTCHAR m
ENCODING 109
SWIDTH 980 0
DWIDTH 24 0
BBX 23 12 0 0
BITMAP
38F0F0
FBFBF8
FE7E7C
7C3C3C
783C3C
783C3C
F07878
F07878
F07878
F0787E
F0787C
F07838
ENDCHAR

STARTCHAR n
ENCODING 110
SWIDTH 680 0
DWIDTH 16 0
BBX 15 12 0 0
BITMAP
38F0
FBF8
FE7C
7C3C
783C
783C
F078
F078
F078
F07E
F07C
F038
ENDCHAR

STARTCHAR o
ENCODING 111
SWIDTH 640 0
DWIDTH 16 0
BBX 14 12 0 0
BITMAP
07E0
3FF8
7C78
783C
F03C
F03C
F03C
F03C
F078
78F8
7FF0
1F80
ENDCHAR

STARTCHAR p
ENCODING 112
SWIDTH 660 0
DWIDTH 17 0
BBX 16 17 -1 -5
BITMAP
0C78
7FFE
7F1E
3E0F
3C0F
3C0F
3C0F
3C0F
3C1E
7C3E
7DFC
79E0
7800
7800
7800
FC00
FC00
ENDCHAR

STARTCHAR q
ENCODING 113
SWIDTH 640 0
DWIDTH 17 0
BBX 15 17 0 -5
BITMAP
07C6
3FEE
7C3E
781E
F01E
F03C
F03C
F03C
F03C
787C
7FF8
1F78
0078
0078
0078
00FC
00FC
ENDCHAR

STARTCHAR r
ENCODING 114
SWIDTH 460 0
DWIDTH 11 0
BBX 10 12 0 0
BITMAP
39C0
FBC0
FFC0
7CC0
7800
7800
7800
F000
F000
F000
F000
F000
ENDCHAR

STARTCHAR s
ENCODING 115
SWIDTH 520 0
DWIDTH 14 0
BBX 12 12 0 0
BITMAP
0FC0
3FF0
3870
7800
7F00
7FC0
3FE0
0FE0
01E0
E1C0
FFC0
3F00
ENDCHAR

STARTCHAR t
ENCODING 116
SWIDTH 420 0
DWIDTH 9 0
BBX 7 16 1 0
BITMAP
18
18
38
38
FE
FE
78
78
78
78
F0
F0
F0
FC
F8
F0
ENDCHAR

STARTCHAR u
ENCODING 117
SWIDTH 680 0
DWIDTH 17 0
BBX 15 12 0 0
BITMAP
383C
F83C
F83C
783C
783C
783C
F078
F078
F0F8
F9FE
7F7C
3C38
ENDCHAR

STARTCHAR v
ENCODING 118
SWIDTH 580 0
DWIDTH 15 0
BBX 13 12 0 0
BITMAP
3870
F878
F838
7838
7838
7838
F070
F070
F060
F8E0
7FC0
3F00
ENDCHAR

STARTCHAR w
ENCODING 119
SWIDTH 840 0
DWIDTH 23 0
BBX 21 12 0 0
BITMAP
387870
F87878
F87838
787838
787838
787838
F0F070
F0F070
F0F060
F9F8E0
7F9FC0
3E0F00
ENDCHAR

STARTCHAR x
ENCODING 120
SWIDTH 580 0
DWIDTH 14 0
BBX 14 12 -1 0
BITMAP
1C1C
3E3C
7E70
0FC0
0F80
0780
0780
07C0
0FC0
39F8
F1F0
E0E0
ENDCHAR

STARTCHAR y
ENCODING 121
SWIDTH 560 0
DWIDTH 15 0
BBX 13 17 0 -5
BITMAP
3870
F878
F838
7838
7838
7870
7870
7870
3CE0
3CE0
3FC0
1FC0
0380
0700
1E00
FC00
F000
ENDCHAR

STARTCHAR z
ENCODING 122
SWIDTH 500 0
DWIDTH 13 0
BBX 12 12 0 0
BITMAP
3FF0
7FF0
61E0
03E0
07C0
0F80
1F00
3E00
7C00
7860
FFE0
FFC0
ENDCHAR

STARTCHAR braceleft
ENCODING 123
SWIDTH 340 0
DWIDTH 9 0
BBX 9 23 0 -4
BITMAP
0780
0F00
1E00
1E00
1E00
1E00
3C00
3C00
3C00
3C00
3800
E000
7000
7800
7800
7800
7800
F000
F000
F000
F000
7800
3C00
ENDCHAR

STARTCHAR bar
ENCODING 124
SWIDTH 660 0
DWIDTH 15 0
BBX 2 19 6 0
BITMAP
C0
C0
C0
C0
C0
C0
C0
C0
C0
C0
C0
C0
C0
C0
C0
C0
C0
C0
C0
ENDCHAR

STARTCHAR braceright
ENCODING 125
SWIDTH 340 0
DWIDTH 9 0
BBX 9 23 -1 -4
BITMAP
1E00
0F00
0780
0780
0780
0780
0F00
0F00
0F00
0F00
0700
0380
0E00
1E00
1E00
1E00
1E00
3C00
3C00
3C00
3C00
7800
F000
ENDCHAR

STARTCHAR asciitilde
ENCODING 126
SWIDTH 660 0
DWIDTH 16 0
BBX 15 4 0 6
BITMAP
1F0E
7F9E
F3FC
E1F0
ENDCHAR

STARTCHAR space
ENCODING 160
SWIDTH 340 0
DWIDTH 8 0
BBX 1 1 0 0
BITMAP
00
ENDCHAR

STARTCHAR exclamdown
ENCODING 161
SWIDTH 380 0
DWIDTH 10 0
BBX 7 19 0 -5
BITMAP
1C
3E
3E
3E
1C
00
00
38
38
38
78
78
78
78
F8
F8
F8
F8
70
ENDCHAR

STARTCHAR cent
ENCODING 162
SWIDTH 660 0
DWIDTH 16 0
BBX 16 18 0 0
BITMAP
0060
0060
01FE
07FF
1F0F
3E06
7C00
7C00
F800
F800
F800
7806
7C1E
3FFC
0FF0
0180
0180
0180
ENDCHAR

STARTCHAR sterling
ENCODING 163
SWIDTH 660 0
DWIDTH 16 0
BBX 16 19 0 0
BITMAP
00F8
03FE
07CF
078F
0F86
0F80
0F80
0F80
0F80
FFFC
FFFC
1F00
1F00
1F00
1E00
1C06
3FFE
FFFC
F1F8
ENDCHAR

STARTCHAR EuroSign
ENCODING 164
SWIDTH 500 0
DWIDTH 12 0
BBX 15 16 -1 0
BITMAP
007C
0186
0304
0604
0E00
1C00
7FE0
1C00
FFC0
3800
3800
3800
3810
3820
1C40
0F80
ENDCHAR

STARTCHAR yen
ENCODING 165
SWIDTH 680 0
DWIDTH 16 0
BBX 17 19 0 0
BITMAP
FE0F80
FE0F80
7C0700
7C0E00
3E1C00
3E1C00
1F3800
1F7000
0FF000
7FFC00
7FFC00
07C000
7FF800
7FF800
0F8000
0F8000
0F8000
1FC000
1FC000
ENDCHAR

STARTCHAR Scaron
ENCODING 166
SWIDTH 680 0
DWIDTH 16 0
BBX 15 24 0 0
BITMAP
0618
0330
01E0
00C0
0000
03F8
0FFE
1F1E
1E0E
3E06
3E00
3F00
3FC0
1FF0
1FF8
07FC
01FC
007C
003C
603C
F038
F078
7FF0
1FC0
ENDCHAR

STARTCHAR section
ENCODING 167
SWIDTH 680 0
DWIDTH 16 0
BBX 15 23 0 -4
BITMAP
03F8
0FFE
0E1E
1C0E
1C0C
1F00
1FC0
0FF0
1FF8
31FC
707C
781C
7E1C
7F98
3FF0
0FE0
03F0
00F0
6070
E070
F0E0
FFE0
3F80
ENDCHAR

STARTCHAR scaron
ENCODING 168
SWIDTH 520 0
DWIDTH 14 0
BBX 12 17 0 0
BITMAP
1860
0CC0
0780
0300
0000
0FC0
3FF0
3870
7800
7F00
7FC0
3FE0
0FE0
01E0
E1C0
FFC0
3F00
ENDCHAR

STARTCHAR copyright
ENCODING 169
SWIDTH 840 0
DWIDTH 21 0
BBX 19 19 0 0
BITMAP
03F800
0E0E00
380380
200080
60F8C0
431C40
C60C60
860420
8C0020
8C0020
8C0020
8C0020
C60460
470840
61F0C0
200080
380380
0E0E00
03F800
ENDCHAR

STARTCHAR ordfeminine
ENCODING 170
SWIDTH 440 0
DWIDTH 11 0
BBX 9 10 1 9
BITMAP
3B80
7780
E380
E700
E700
EF00
7780
0000
0000
FF00
ENDCHAR

STARTCHAR guillemotleft
ENCODING 171
SWIDTH 460 0
DWIDTH 10 0
BBX 10 7 -1 4
BITMAP
18C0
39C0
7380
E700
E700
7380
3180
ENDCHAR

STARTCHAR logicalnot
ENCODING 172
SWIDTH 660 0
DWIDTH 16 0
BBX 14 8 0 3
BITMAP
FFFC
FFFC
FFFC
001C
001C
001C
001C
001C
ENDCHAR

STARTCHAR hyphen
ENCODING 173
SWIDTH 300 0
DWIDTH 8 0
BBX 7 2 0 7
BITMAP
FE
FE
ENDCHAR

STARTCHAR registered
ENCODING 174
SWIDTH 840 0
DWIDTH 21 0
BBX 19 19 0 0
BITMAP
03F800
0E0E00
380380
200080
6FE0C0
463840
C61860
861820
863020
866020
87E020
863020
C61860
460C40
6F1EC0
200080
380380
0E0E00
03F800
ENDCHAR

STARTCHAR macron
ENCODING 175
SWIDTH 480 0
DWIDTH 12 0
BBX 8 2 2 15
BITMAP
FF
FF
ENDCHAR

STARTCHAR degree
ENCODING 176
SWIDTH 400 0
DWIDTH 9 0
BBX 8 7 0 12
BITMAP
3C
66
C3
C3
C3
66
3C
ENDCHAR

STARTCHAR plusminus
ENCODING 177
SWIDTH 660 0
DWIDTH 16 0
BBX 13 15 1 0
BITMAP
0700
0700
0700
0700
FFF8
FFF8
FFF8
0700
0700
0700
0700
0000
FFF8
FFF8
FFF8
ENDCHAR

STARTCHAR twosuperior
ENCODING 178
SWIDTH 408 0
DWIDTH 9 0
BBX 9 11 0 8
BITMAP
1F00
3380
7380
6380
0700
0E00
1C00
3800
7100
FF00
FE00
ENDCHAR

STARTCHAR threesuperior
ENCODING 179
SWIDTH 408 0
DWIDTH 9 0
BBX 9 11 0 8
BITMAP
1F00
3380
7380
6380
0700
1E00
0700
0700
C700
CE00
7C00
ENDCHAR

STARTCHAR Zcaron
ENCODING 180
SWIDTH 620 0
DWIDTH 18 0
BBX 17 24 0 0
BITMAP
030C00
019800
00F000
006000
000000
1FFF80
3FFF00
383E00
307E00
007C00
00F800
01F800
01F000
03E000
07E000
07C000
0F8000
1F8000
1F0000
3E0000
7E0600
7C0E00
FFFE00
FFFC00
ENDCHAR

STARTCHAR mu
ENCODING 181
SWIDTH 680 0
DWIDTH 17 0
BBX 17 17 -2 -5
BITMAP
0E0F00
3E0F00
3E0F00
1E0F00
1E0F00
1E0F00
3C1E00
3C1E00
3C3E00
3E7F80
7FDF00
7F0E00
780000
700000
700000
F80000
F00000
ENDCHAR

STARTCHAR paragraph
ENCODING 182
SWIDTH 660 0
DWIDTH 16 0
BBX 16 22 0 -3
BITMAP
0FFF
3FFF
78CC
78CC
F0CC
F0CC
F0CC
F198
7198
7D98
1F98
0198
0330
0330
0330
0330
0330
0660
0660
0660
0660
0660
ENDCHAR

STARTCHAR periodcentered
ENCODING 183
SWIDTH 340 0
DWIDTH 8 0
BBX 5 5 1 6
BITMAP
70
F8
F8
F8
70
ENDCHAR

STARTCHAR zcaron
ENCODING 184
SWIDTH 500 0
DWIDTH 13 0
BBX 12 17 0 0
BITMAP
1860
0CC0
0780
0300
0000
3FF0
7FF0
61E0
03E0
07C0
0F80
1F00
3E00
7C00
7860
FFE0
FFC0
ENDCHAR

STARTCHAR onesuperior
ENCODING 185
SWIDTH 408 0
DWIDTH 9 0
BBX 7 11 0 8
BITMAP
06
0E
3E
0E
1C
1C
1C
38
38
38
FE
ENDCHAR

STARTCHAR ordmasculine
ENCODING 186
SWIDTH 440 0
DWIDTH 11 0
BBX 9 10 1 9
BITMAP
1F00
7380
E380
E380
E380
E700
7C00
0000
0000
FF00
ENDCHAR

STARTCHAR guillemotright
ENCODING 187
SWIDTH 460 0
DWIDTH 10 0
BBX 10 7 0 4
BITMAP
6300
7380
39C0
39C0
7380
E700
C600
ENDCHAR

STARTCHAR Ligature_OE
ENCODING 188
SWIDTH 1100 0
DWIDTH 28 0
BBX 27 19 0 0
BITMAP
01FDFFE0
07FFFFE0
1F87E0E0
1F03E060
7E03E000
7C03E000
7C07C000
F807C300
F807FF00
F807FF00
F807C300
F807C000
F80F8000
F80F8000
FC0F8000
7C0F80C0
7E1F81C0
3FFFFFC0
0FEFFF80
ENDCHAR

STARTCHAR Ligature_oe
ENCODING 189
SWIDTH 1000 0
DWIDTH 25 0
BBX 23 12 0 0
BITMAP
07E1F8
3FFFFE
7C7F1E
783E1E
F03C3C
F03FF0
F03FC0
F03C00
F07C00
78FE0C
7FFFF8
1F87E0
ENDCHAR

STARTCHAR Ydiaeresis
ENCODING 190
SWIDTH 740 0
DWIDTH 18 0
BBX 17 24 1 0
BITMAP
031800
07BC00
07BC00
031800
000000
FE0F80
FE0F80
7C0700
7C0E00
3E1C00
3E1C00
1F3800
1F7000
0FF000
0FE000
07C000
07C000
07C000
0F8000
0F8000
0F8000
0F8000
1FC000
1FC000
ENDCHAR

STARTCHAR questiondown
ENCODING 191
SWIDTH 520 0
DWIDTH 13 0
BBX 12 19 0 -5
BITMAP
00E0
01F0
01F0
01F0
00E0
0000
00C0
00C0
01C0
07C0
1F00
7C00
7800
F800
F860
F8F0
FCF0
7FE0
1F80
ENDCHAR

STARTCHAR Agrave
ENCODING 192
SWIDTH 760 0
DWIDTH 21 0
BBX 20 24 -1 0
BITMAP
00E000
00F000
003800
000C00
000000
001E00
003F00
007F00
007F00
00EF80
01CF80
01CF80
038F80
0707C0
0707C0
0E07C0
0FFFC0
1FFFC0
1C03E0
3803E0
3803E0
7003E0
F807F0
F807F0
ENDCHAR

STARTCHAR Aacute
ENCODING 193
SWIDTH 760 0
DWIDTH 21 0
BBX 20 24 -1 0
BITMAP
0001C0
0003C0
000700
000C00
000000
001E00
003F00
007F00
007F00
00EF80
01CF80
01CF80
038F80
0707C0
0707C0
0E07C0
0FFFC0
1FFFC0
1C03E0
3803E0
3803E0
7003E0
F807F0
F807F0
ENDCHAR

STARTCHAR Acircumflex
ENCODING 194
SWIDTH 760 0
DWIDTH 21 0
BBX 20 24 -1 0
BITMAP
000C00
001E00
003300
006180
000000
001E00
003F00
007F00
007F00
00EF80
01CF80
01CF80
038F80
0707C0
0707C0
0E07C0
0FFFC0
1FFFC0
1C03E0
3803E0
3803E0
7003E0
F807F0
F807F0
ENDCHAR

STARTCHAR Atilde
ENCODING 195
SWIDTH 760 0
DWIDTH 21 0
BBX 20 23 -1 0
BITMAP
001CC0
003F80
006700
000000
001E00
003F00
007F00
007F00
00EF80
01CF80
01CF80
038F80
0707C0
0707C0
0E07C0
0FFFC0
1FFFC0
1C03E0
3803E0
3803E0
7003E0
F807F0
F807F0
ENDCHAR

STARTCHAR Adieresis
ENCODING 196
SWIDTH 760 0
DWIDTH 21 0
BBX 20 24 -1 0
BITMAP
006300
00F780
00F780
006300
000000
001E00
003F00
007F00
007F00
00EF80
01CF80
01CF80
038F80
0707C0
0707C0
0E07C0
0FFFC0
1FFFC0
1C03E0
3803E0
3803E0
7003E0
F807F0
F807F0
ENDCHAR

STARTCHAR Aring
ENCODING 197
SWIDTH 760 0
DWIDTH 21 0
BBX 20 25 -1 0
BITMAP
000E00
001B00
001100
001B00
000E00
001E00
001E00
003F00
007F00
007F00
00EF80
01CF80
01CF80
038F80
0707C0
0707C0
0E07C0
0FFFC0
1FFFC0
1C03E0
3803E0
3803E0
7003E0
F807F0
F807F0
ENDCHAR

STARTCHAR AE
ENCODING 198
SWIDTH 1000 0
DWIDTH 26 0
BBX 26 19 -1 0
BITMAP
001FFFC0
003FFFC0
007FC1C0
0077C0C0
00E7C000
01C7C000
01CF8000
038F8600
070FFE00
070FFE00
0E0F8600
0FFF8000
1FFF0000
1C1F0000
381F0000
381F0180
701F0380
F83FFF80
F83FFF00
ENDCHAR

STARTCHAR Ccedilla
ENCODING 199
SWIDTH 780 0
DWIDTH 19 0
BBX 18 24 0 -5
BITMAP
01FF00
07FFC0
1F83C0
1F01C0
7E00C0
7C00C0
7C0000
F80000
F80000
F80000
F80000
F80000
F80000
F80180
FC0180
7C0700
7E3F00
3FFC00
0FF000
004000
00E000
003000
033000
01E000
ENDCHAR

STARTCHAR Egrave
ENCODING 200
SWIDTH 700 0
DWIDTH 17 0
BBX 16 24 0 0
BITMAP
0380
03C0
00E0
0030
0000
3FFF
3FFF
1F07
1F03
1F00
1F00
3E00
3E18
3FF8
3FF8
3E18
3E00
7C00
7C00
7C00
7C06
7C0E
FFFE
FFFC
ENDCHAR

STARTCHAR Eacute
ENCODING 201
SWIDTH 700 0
DWIDTH 17 0
BBX 16 24 0 0
BITMAP
001C
003C
0070
00C0
0000
3FFF
3FFF
1F07
1F03
1F00
1F00
3E00
3E18
3FF8
3FF8
3E18
3E00
7C00
7C00
7C00
7C06
7C0E
FFFE
FFFC
ENDCHAR

STARTCHAR Ecircumflex
ENCODING 202
SWIDTH 700 0
DWIDTH 17 0
BBX 16 24 0 0
BITMAP
0060
00F0
0198
030C
0000
3FFF
3FFF
1F07
1F03
1F00
1F00
3E00
3E18
3FF8
3FF8
3E18
3E00
7C00
7C00
7C00
7C06
7C0E
FFFE
FFFC
ENDCHAR

STARTCHAR Edieresis
ENCODING 203
SWIDTH 700 0
DWIDTH 17 0
BBX 16 24 0 0
BITMAP
0318
07BC
07BC
0318
0000
3FFF
3FFF
1F07
1F03
1F00
1F00
3E00
3E18
3FF8
3FF8
3E18
3E00
7C00
7C00
7C00
7C06
7C0E
FFFE
FFFC
ENDCHAR

STARTCHAR Igrave
ENCODING 204
SWIDTH 400 0
DWIDTH 10 0
BBX 9 24 0 0
BITMAP
1C00
1E00
0700
0180
0000
3F80
3F80
1F00
1F00
1F00
1F00
3E00
3E00
3E00
3E00
3E00
3E00
7C00
7C00
7C00
7C00
7C00
FE00
FE00
ENDCHAR

STARTCHAR Iacute
ENCODING 205
SWIDTH 400 0
DWIDTH 10 0
BBX 9 24 0 0
BITMAP
0380
0780
0E00
1800
0000
3F80
3F80
1F00
1F00
1F00
1F00
3E00
3E00
3E00
3E00
3E00
3E00
7C00
7C00
7C00
7C00
7C00
FE00
FE00
ENDCHAR

STARTCHAR Icircumflex
ENCODING 206
SWIDTH 400 0
DWIDTH 10 0
BBX 10 24 0 0
BITMAP
0600
0F00
1980
30C0
0000
3F80
3F80
1F00
1F00
1F00
1F00
3E00
3E00
3E00
3E00
3E00
3E00
7C00
7C00
7C00
7C00
7C00
FE00
FE00
ENDCHAR

STARTCHAR Idieresis
ENCODING 207
SWIDTH 400 0
DWIDTH 10 0
BBX 10 24 0 0
BITMAP
3180
7BC0
7BC0
3180
0000
3F80
3F80
1F00
1F00
1F00
1F00
3E00
3E00
3E00
3E00
3E00
3E00
7C00
7C00
7C00
7C00
7C00
FE00
FE00
ENDCHAR

STARTCHAR Eth
ENCODING 208
SWIDTH 860 0
DWIDTH 20 0
BBX 19 19 0 0
BITMAP
3FFE00
3FFF80
1F0FC0
1F07C0
1F07E0
1F03E0
3E03E0
3E03E0
FFC3E0
FFC3E0
3E03E0
3E03E0
7C07C0
7C07C0
7C0FC0
7C1F00
7C3F00
FFFC00
FFF000
ENDCHAR

STARTCHAR Ntilde
ENCODING 209
SWIDTH 800 0
DWIDTH 20 0
BBX 19 23 0 0
BITMAP
007300
00FE00
019C00
000000
3F03E0
3F83E0
1F81C0
1FC1C0
1FC1C0
1BE1C0
19F380
39F380
38FB80
38FB80
387B80
387F80
383F00
703F00
701F00
701F00
700F00
F80F00
F80600
ENDCHAR

STARTCHAR Ograve
ENCODING 210
SWIDTH 860 0
DWIDTH 20 0
BBX 19 24 0 0
BITMAP
00E000
00F000
003800
000C00
000000
01FE00
07FF80
1F8FC0
1F07C0
7E07E0
7C03E0
7C03E0
F803E0
F803E0
F803E0
F803E0
F803E0
F807C0
F807C0
FC0FC0
7C1F00
7E3F00
3FFC00
0FF000
ENDCHAR

STARTCHAR Oacute
ENCODING 211
SWIDTH 860 0
DWIDTH 20 0
BBX 19 24 0 0
BITMAP
000380
000780
000E00
001800
000000
01FE00
07FF80
1F8FC0
1F07C0
7E07E0
7C03E0
7C03E0
F803E0
F803E0
F803E0
F803E0
F803E0
F807C0
F807C0
FC0FC0
7C1F00
7E3F00
3FFC00
0FF000
ENDCHAR

STARTCHAR Ocircumflex
ENCODING 212
SWIDTH 860 0
DWIDTH 20 0
BBX 19 24 0 0
BITMAP
001800
003C00
006600
00C300
000000
01FE00
07FF80
1F8FC0
1F07C0
7E07E0
7C03E0
7C03E0
F803E0
F803E0
F803E0
F803E0
F803E0
F807C0
F807C0
FC0FC0
7C1F00
7E3F00
3FFC00
0FF000
ENDCHAR

STARTCHAR Otilde
ENCODING 213
SWIDTH 860 0
DWIDTH 20 0
BBX 19 23 0 0
BITMAP
007300
00FE00
019C00
000000
01FE00
07FF80
1F8FC0
1F07C0
7E07E0
7C03E0
7C03E0
F803E0
F803E0
F803E0
F803E0
F803E0
F807C0
F807C0
FC0FC0
7C1F00
7E3F00
3FFC00
0FF000
ENDCHAR

STARTCHAR Odieresis
ENCODING 214
SWIDTH 860 0
DWIDTH 20 0
BBX 19 24 0 0
BITMAP
00C600
01EF00
01EF00
00C600
000000
01FE00
07FF80
1F8FC0
1F07C0
7E07E0
7C03E0
7C03E0
F803E0
F803E0
F803E0
F803E0
F803E0
F807C0
F807C0
FC0FC0
7C1F00
7E3F00
3FFC00
0FF000
ENDCHAR

STARTCHAR multiply
ENCODING 215
SWIDTH 660 0
DWIDTH 16 0
BBX 15 14 1 1
BITMAP
6018
F03C
7878
3CF0
1FE0
0FC0
0780
0FC0
1FE0
3CF0
7878
F03C
E01E
400C
ENDCHAR

STARTCHAR Oslash
ENCODING 216
SWIDTH 860 0
DWIDTH 20 0
BBX 19 19 0 0
BITMAP
01FE60
07FFE0
1F8FC0
1F07C0
7E07E0
7C0FE0
7C1FE0
F83BE0
F873E0
F8E3E0
F9C3E0
FB83E0
FF07C0
FE07C0
FC0FC0
7C1F00
7E3F00
FFFC00
CFF000
ENDCHAR

STARTCHAR Ugrave
ENCODING 217
SWIDTH 800 0
DWIDTH 21 0
BBX 19 24 1 0
BITMAP
00E000
00F000
003800
000C00
000000
7F03E0
7F03E0
3E01C0
3E01C0
3E01C0
3E01C0
7C0380
7C0380
7C0380
7C0380
7C0380
F80380
F80700
F80700
F80700
F80E00
7C1E00
7FFC00
1FF000
ENDCHAR

STARTCHAR Uacute
ENCODING 218
SWIDTH 800 0
DWIDTH 21 0
BBX 19 24 1 0
BITMAP
000700
000F00
001C00
003000
000000
7F03E0
7F03E0
3E01C0
3E01C0
3E01C0
3E01C0
7C0380
7C0380
7C0380
7C0380
7C0380
F80380
F80700
F80700
F80700
F80E00
7C1E00
7FFC00
1FF000
ENDCHAR

STARTCHAR Ucircumflex
ENCODING 219
SWIDTH 800 0
DWIDTH 21 0
BBX 19 24 1 0
BITMAP
003000
007800
00CC00
018600
000000
7F03E0
7F03E0
3E01C0
3E01C0
3E01C0
3E01C0
7C0380
7C0380
7C0380
7C0380
7C0380
F80380
F80700
F80700
F80700
F80E00
7C1E00
7FFC00
1FF000
ENDCHAR

STARTCHAR Udieresis
ENCODING 220
SWIDTH 800 0
DWIDTH 21 0
BBX 19 24 1 0
BITMAP
00C600
01EF00
01EF00
00C600
000000
7F03E0
7F03E0
3E01C0
3E01C0
3E01C0
3E01C0
7C0380
7C0380
7C0380
7C0380
7C0380
F80380
F80700
F80700
F80700
F80E00
7C1E00
7FFC00
1FF000
ENDCHAR

STARTCHAR Yacute
ENCODING 221
SWIDTH 740 0
DWIDTH 18 0
BBX 17 24 1 0
BITMAP
001C00
003C00
007000
00C000
000000
FE0F80
FE0F80
7C0700
7C0E00
3E1C00
3E1C00
1F3800
1F7000
0FF000
0FE000
07C000
07C000
07C000
0F8000
0F8000
0F8000
0F8000
1FC000
1FC000
ENDCHAR

STARTCHAR Thorn
ENCODING 222
SWIDTH 720 0
DWIDTH 18 0
BBX 16 19 0 0
BITMAP
3F80
3F80
1F00
1FF8
1FFE
1F3F
1E1F
3E1F
3E1F
3E1F
3E3F
3C3E
3CFC
7FF0
7F80
7C00
7C00
FE00
FE00
ENDCHAR

STARTCHAR germandbls
ENCODING 223
SWIDTH 640 0
DWIDTH 15 0
BBX 14 19 -1 0
BITMAP
03F0
0FF8
0F3C
1E1C
1E1C
1E1C
1E38
1E70
3CF0
3CF0
3C78
3C78
3C3C
783C
783C
783C
7A78
7BF8
F9E0
ENDCHAR

STARTCHAR agrave
ENCODING 224
SWIDTH 640 0
DWIDTH 17 0
BBX 16 17 0 0
BITMAP
0700
0780
01C0
0060
0000
07C6
3FFE
7C3E
781E
F01E
F01E
F03C
F03C
F03C
787F
7FFE
1F9C
ENDCHAR

STARTCHAR aacute
ENCODING 225
SWIDTH 640 0
DWIDTH 17 0
BBX 16 17 0 0
BITMAP
0070
00F0
01C0
0300
0000
07C6
3FFE
7C3E
781E
F01E
F01E
F03C
F03C
F03C
787F
7FFE
1F9C
ENDCHAR

STARTCHAR acircumflex
ENCODING 226
SWIDTH 640 0
DWIDTH 17 0
BBX 16 17 0 0
BITMAP
0180
03C0
0660
0C30
0000
07C6
3FFE
7C3E
781E
F01E
F01E
F03C
F03C
F03C
787F
7FFE
1F9C
ENDCHAR

STARTCHAR atilde
ENCODING 227
SWIDTH 640 0
DWIDTH 17 0
BBX 16 16 0 0
BITMAP
01CC
03F8
0670
0000
07C6
3FFE
7C3E
781E
F01E
F01E
F03C
F03C
F03C
787F
7FFE
1F9C
ENDCHAR

STARTCHAR adieresis
ENCODING 228
SWIDTH 640 0
DWIDTH 17 0
BBX 16 17 0 0
BITMAP
0630
0F78
0F78
0630
0000
07C6
3FFE
7C3E
781E
F01E
F01E
F03C
F03C
F03C
787F
7FFE
1F9C
ENDCHAR

STARTCHAR aring
ENCODING 229
SWIDTH 640 0
DWIDTH 17 0
BBX 16 18 0 0
BITMAP
01C0
0360
0220
0360
01C0
0000
07C6
3FFE
7C3E
781E
F01E
F01E
F03C
F03C
F03C
787F
7FFE
1F9C
ENDCHAR

STARTCHAR ae
ENCODING 230
SWIDTH 900 0
DWIDTH 23 0
BBX 22 12 0 0
BITMAP
0FC3F0
3FEFFC
387E3C
007C3C
01F878
0FFFE0
3E7F80
F87800
F07800
F1FC18
FFBFF0
7E0FC0
ENDCHAR

STARTCHAR ccedilla
ENCODING 231
SWIDTH 540 0
DWIDTH 13 0
BBX 12 17 0 -5
BITMAP
07E0
3FF0
7C70
7830
F000
F000
F000
F000
F000
7830
7FE0
1F80
0200
0700
0180
1980
0F00
ENDCHAR

STARTCHAR egrave
ENCODING 232
SWIDTH 580 0
DWIDTH 14 0
BBX 13 17 0 0
BITMAP
1C00
1E00
0700
0180
0000
07E0
3FF8
7C78
7878
F0F0
FFC0
FF00
F000
F000
7830
7FE0
1F80
ENDCHAR

STARTCHAR eacute
ENCODING 233
SWIDTH 580 0
DWIDTH 14 0
BBX 13 17 0 0
BITMAP
01C0
03C0
0700
0C00
0000
07E0
3FF8
7C78
7878
F0F0
FFC0
FF00
F000
F000
7830
7FE0
1F80
ENDCHAR

STARTCHAR ecircumflex
ENCODING 234
SWIDTH 580 0
DWIDTH 14 0
BBX 13 17 0 0
BITMAP
0300
0780
0CC0
1860
0000
07E0
3FF8
7C78
7878
F0F0
FFC0
FF00
F000
F000
7830
7FE0
1F80
ENDCHAR

STARTCHAR edieresis
ENCODING 235
SWIDTH 580 0
DWIDTH 14 0
BBX 13 17 0 0
BITMAP
0C60
1EF0
1EF0
0C60
0000
07E0
3FF8
7C78
7878
F0F0
FFC0
FF00
F000
F000
7830
7FE0
1F80
ENDCHAR

STARTCHAR igrave
ENCODING 236
SWIDTH 340 0
DWIDTH 10 0
BBX 7 17 1 0
BITMAP
E0
F0
38
0C
00
3C
FC
FC
3C
3C
3C
78
78
78
7E
7C
78
ENDCHAR

STARTCHAR iacute
ENCODING 237
SWIDTH 340 0
DWIDTH 10 0
BBX 7 17 1 0
BITMAP
0E
1E
38
60
00
3C
FC
FC
3C
3C
3C
78
78
78
7E
7C
78
ENDCHAR

STARTCHAR icircumflex
ENCODING 238
SWIDTH 340 0
DWIDTH 10 0
BBX 8 17 1 0
BITMAP
18
3C
66
C3
00
3C
FC
FC
3C
3C
3C
78
78
78
7E
7C
78
ENDCHAR

STARTCHAR idieresis
ENCODING 239
SWIDTH 340 0
DWIDTH 10 0
BBX 9 17 1 0
BITMAP
6300
F780
F780
6300
0000
3C00
FC00
FC00
3C00
3C00
3C00
7800
7800
7800
7E00
7C00
7800
ENDCHAR

STARTCHAR eth
ENCODING 240
SWIDTH 640 0
DWIDTH 16 0
BBX 14 18 0 0
BITMAP
0180
7B00
0F00
1BC0
30E0
0070
07F8
3FF8
7C7C
783C
F03C
F03C
F03C
F03C
F078
78F8
7FF0
1F80
ENDCHAR

STARTCHAR ntilde
ENCODING 241
SWIDTH 680 0
DWIDTH 16 0
BBX 15 16 0 0
BITMAP
0398
07F0
0CE0
0000
38F0
FBF8
FE7C
7C3C
783C
783C
F078
F078
F078
F07E
F07C
F038
ENDCHAR

STARTCHAR ograve
ENCODING 242
SWIDTH 640 0
DWIDTH 16 0
BBX 14 17 0 0
BITMAP
0E00
0F00
0380
00C0
0000
07E0
3FF8
7C78
783C
F03C
F03C
F03C
F03C
F078
78F8
7FF0
1F80
ENDCHAR

STARTCHAR oacute
ENCODING 243
SWIDTH 640 0
DWIDTH 16 0
BBX 14 17 0 0
BITMAP
00E0
01E0
0380
0600
0000
07E0
3FF8
7C78
783C
F03C
F03C
F03C
F03C
F078
78F8
7FF0
1F80
ENDCHAR

STARTCHAR ocircumflex
ENCODING 244
SWIDTH 640 0
DWIDTH 16 0
BBX 14 17 0 0
BITMAP
0180
03C0
0660
0C30
0000
07E0
3FF8
7C78
783C
F03C
F03C
F03C
F03C
F078
78F8
7FF0
1F80
ENDCHAR

STARTCHAR otilde
ENCODING 245
SWIDTH 640 0
DWIDTH 16 0
BBX 14 16 0 0
BITMAP
0730
0FE0
19C0
0000
07E0
3FF8
7C78
783C
F03C
F03C
F03C
F03C
F078
78F8
7FF0
1F80
ENDCHAR

STARTCHAR odieresis
ENCODING 246
SWIDTH 640 0
DWIDTH 16 0
BBX 14 17 0 0
BITMAP
0C60
1EF0
1EF0
0C60
0000
07E0
3FF8
7C78
783C
F03C
F03C
F03C
F03C
F078
78F8
7FF0
1F80
ENDCHAR

STARTCHAR divide
ENCODING 247
SWIDTH 660 0
DWIDTH 16 0
BBX 14 15 1 0
BITMAP
0300
0780
0780
0300
0000
0000
FFFC
FFFC
FFFC
0000
0000
0300
0780
0780
0300
ENDCHAR

STARTCHAR oslash
ENCODING 248
SWIDTH 640 0
DWIDTH 16 0
BBX 14 13 0 -1
BITMAP
07EC
3FF8
7C78
787C
F0FC
F1BC
F33C
F63C
FC78
78F8
7FF0
7F80
C000
ENDCHAR

STARTCHAR ugrave
ENCODING 249
SWIDTH 680 0
DWIDTH 17 0
BBX 15 17 0 0
BITMAP
0E00
0F00
0380
00C0
0000
383C
F83C
F83C
783C
783C
783C
F078
F078
F0F8
F9FE
7F7C
3C38
ENDCHAR

STARTCHAR uacute
ENCODING 250
SWIDTH 680 0
DWIDTH 17 0
BBX 15 17 0 0
BITMAP
0070
00F0
01C0
0300
0000
383C
F83C
F83C
783C
783C
783C
F078
F078
F0F8
F9FE
7F7C
3C38
ENDCHAR

STARTCHAR ucircumflex
ENCODING 251
SWIDTH 680 0
DWIDTH 17 0
BBX 15 17 0 0
BITMAP
0180
03C0
0660
0C30
0000
383C
F83C
F83C
783C
783C
783C
F078
F078
F0F8
F9FE
7F7C
3C38
ENDCHAR

STARTCHAR udieresis
ENCODING 252
SWIDTH 680 0
DWIDTH 17 0
BBX 15 17 0 0
BITMAP
0C60
1EF0
1EF0
0C60
0000
383C
F83C
F83C
783C
783C
783C
F078
F078
F0F8
F9FE
7F7C
3C38
ENDCHAR

STARTCHAR yacute
ENCODING 253
SWIDTH 560 0
DWIDTH 15 0
BBX 13 22 0 -5
BITMAP
0070
00F0
01C0
0300
0000
3870
F878
F838
7838
7838
7870
7870
7870
3CE0
3CE0
3FC0
1FC0
0380
0700
1E00
FC00
F000
ENDCHAR

STARTCHAR thorn
ENCODING 254
SWIDTH 660 0
DWIDTH 17 0
BBX 16 24 -1 -5
BITMAP
0700
1F00
1F00
0F00
0F00
0F00
1E00
1E78
1FFE
1F1E
1E0F
3E0F
3C0F
3C0F
3C0F
3C1E
7C3E
79FC
79E0
7800
7800
7800
FC00
FC00
ENDCHAR

STARTCHAR ydieresis
ENCODING 255
SWIDTH 560 0
DWIDTH 14 0
BBX 13 22 0 -5
BITMAP
0C60
1EF0
1EF0
0C60
0000
3870
F878
F838
7838
7838
7870
7870
7870
3CE0
3CE0
3FC0
1FC0
0380
0700
1E00
FC00
F000
ENDCHAR
ENDFONT
